<?xml version="1.0" encoding="utf-8" ?>
<svg xmlns="http://www.w3.org/2000/svg" xmlns:xlink="http://www.w3.org/1999/xlink" width="153" height="31">
	<defs>
		<clipPath id="clip_0">
			<rect x="-53" y="-12" width="800" height="600" clip-rule="evenodd"/>
		</clipPath>
	</defs>
	<g clip-path="url(#clip_0)">
		<path fill="rgb(1,1,1)" stroke="none" d="M10.3125 27.2297L10.3125 16.7948L7.9125 16.7948L3.3375 27.2297L0 27.2297L5.025 16.0713C2.6625 14.8526 1.0875 12.6437 1.0875 8.5688C1.0875 2.85627 4.65 0 8.8875 0L13.2 0L13.2 27.2297L10.3125 27.2297ZM100.463 27.2297L98.5875 27.2297L98.5875 1.56143L90.6 1.56143L90.6 27.2297L88.725 27.2297L88.725 0L100.463 0L100.463 27.2297ZM8.775 14.3575L10.3125 14.3575L10.3125 2.47543L8.775 2.47543C6.45 2.47543 4.2 4.03686 4.2 8.5688C4.2 12.9484 6.2625 14.3575 8.775 14.3575ZM109.5 27.6106C112.762 27.6106 115.275 23.8784 115.275 17.5184C115.275 10.93 112.762 7.65479 109.5 7.65479C106.238 7.65479 103.725 11.3489 103.725 17.7469C103.725 24.2973 106.238 27.6106 109.5 27.6106ZM153 27.2297L151.387 27.2297C151.238 26.7346 151.05 26.0111 150.938 24.64C150.038 26.4681 148.688 27.6106 146.813 27.6106C144.262 27.6106 142.5 25.5541 142.5 22.0504C142.5 17.9373 144.712 15.8047 148.8 15.8047L150.863 15.8047L150.863 13.4054C150.863 10.473 149.775 9.21622 147.712 9.21622C146.1 9.21622 144.637 9.97789 143.738 11.3108L143.25 9.59705C144 8.60688 145.575 7.65479 147.712 7.65479C150.825 7.65479 152.587 9.40663 152.587 13.215L152.587 23.688C152.587 25.0209 152.775 26.5061 153 27.2297ZM50.475 24.9447C52.125 24.9447 53.4375 24.183 54.1875 23.6499L54.8625 25.9349C53.6625 26.887 52.0875 27.4963 50.2125 27.4963C46.3125 27.4963 43.9125 24.3354 43.9125 18.4324C43.9125 12.2629 45.6 7.76904 49.6125 7.76904C52.7625 7.76904 54.825 10.1683 54.825 16.6806L54.825 18.3182L46.95 18.3182C46.95 22.6597 48.15 24.9447 50.475 24.9447ZM75.7875 27.4963C77.5125 27.4963 78.7125 26.9251 79.725 26.0491L79.05 23.8403C78.375 24.4496 77.2875 25.0209 75.8625 25.0209C73.5 25.0209 72.375 22.2789 72.375 17.4803C72.375 12.6437 73.875 10.2445 75.975 10.2445C77.175 10.2445 78.3 10.8919 79.0875 11.5774L79.5 8.75921C78.675 8.22604 77.7 7.76904 76.0125 7.76904C71.5875 7.76904 69.3 11.6155 69.3 17.6327C69.3 24.183 71.7375 27.4963 75.7875 27.4963ZM24.225 8.03563L24.225 16.1855L19.875 16.1855L19.875 8.03563L16.95 8.03563L16.95 27.2297L19.875 27.2297L19.875 18.6228L24.225 18.6228L24.225 27.2297L27.1125 27.2297L27.1125 8.03563L24.225 8.03563ZM42.15 24.7924L40.65 24.7924L40.65 8.03563L31.875 8.03563L31.875 9.67322C31.875 14.7764 31.6875 20.7174 29.9625 24.7924L28.8 24.7924L28.8 31L31.425 31L31.425 27.2297L39.525 27.2297L39.525 31L42.15 31L42.15 24.7924ZM68.925 27.2297L65.7375 27.2297L60.75 17.6708L60.75 27.2297L57.825 27.2297L57.825 8.03563L60.75 8.03563L60.75 16.9091L65.2875 8.03563L68.25 8.03563L63.5625 17.0614L68.925 27.2297ZM127.65 8.03563L125.888 8.03563L125.888 16.6806C125.888 16.6806 124.763 18.1658 122.7 18.1658C120.938 18.1658 119.85 17.0614 119.85 14.3194L119.85 8.03563L118.088 8.03563L118.088 14.2813C118.088 17.8993 119.775 19.6892 122.4 19.6892C124.65 19.6892 125.888 18.4705 125.888 18.4705L125.888 27.2297L127.65 27.2297L127.65 8.03563ZM141 8.03563L141 9.52088L136.65 9.52088L136.65 27.2297L134.887 27.2297L134.887 9.52088L130.5 9.52088L130.5 8.03563L141 8.03563ZM105.488 17.6327C105.488 23.6118 107.288 26.1634 109.5 26.1634C111.713 26.1634 113.513 23.4214 113.513 17.6327C113.513 11.6155 111.713 9.14005 109.5 9.14005C107.288 9.14005 105.488 11.8059 105.488 17.6327ZM49.6125 10.2064C51.3 10.2064 51.825 12.6057 51.825 15.8808L46.9875 15.8808C47.175 12.4533 47.8125 10.2064 49.6125 10.2064ZM32.7375 24.7924L37.7625 24.7924L37.7625 10.4349L34.5 10.4349L34.5 10.7776C34.5 14.8145 34.3125 20.7174 32.7375 24.7924ZM147.188 26.1634C145.388 26.1634 144.225 24.602 144.225 21.898C144.225 18.5467 145.725 17.0995 148.838 17.0995L150.863 17.0995L150.863 22.3931C150.188 24.4496 148.95 26.1634 147.188 26.1634Z" fill-rule="evenodd"/>
	</g>

</svg>