<?xml version="1.0" encoding="UTF-8" standalone="no"?>
<svg width="270.933mm" height="118.004mm"
 xmlns="http://www.w3.org/2000/svg" xmlns:xlink="http://www.w3.org/1999/xlink"  version="1.2" baseProfile="tiny">
<desc>Created by EvoPdf</desc>
<defs>
</defs>
<g fill="none" stroke="black" stroke-width="1" fill-rule="evenodd" stroke-linecap="square" stroke-linejoin="bevel" >

<g fill="#000000" fill-opacity="1" stroke="#000000" stroke-opacity="1" stroke-width="1" stroke-linecap="butt" stroke-linejoin="miter" stroke-miterlimit="2" transform="matrix(1,0,0,1,0,0)"
>
</g>

<g fill="#000000" fill-opacity="1" stroke="#000000" stroke-opacity="1" stroke-width="1" stroke-linecap="butt" stroke-linejoin="miter" stroke-miterlimit="2" transform="matrix(1,0,0,1,0,0)"
>
</g>

<g fill="#000000" fill-opacity="1" stroke="#000000" stroke-opacity="1" stroke-width="1" stroke-linecap="butt" stroke-linejoin="miter" stroke-miterlimit="2" transform="matrix(1,0,0,1,0,0)"
>
</g>

<g fill="#000000" fill-opacity="1" stroke="#000000" stroke-opacity="1" stroke-width="1" stroke-linecap="butt" stroke-linejoin="miter" stroke-miterlimit="2" transform="matrix(1,0,0,1,0,0)"
>
</g>

<g fill="#000000" fill-opacity="1" stroke="#000000" stroke-opacity="1" stroke-width="1" stroke-linecap="butt" stroke-linejoin="miter" stroke-miterlimit="2" transform="matrix(13.4375,0,0,13.4375,8.09375,8)"
>
</g>

<g fill="#000000" fill-opacity="1" stroke="none" transform="matrix(13.4375,0,0,13.4375,8.09375,8)"
>
<path vector-effect="none" fill-rule="nonzero" d="M9.35,4.394 L8.05,4.394 C6.085,4.394 4.184,5.694 4.184,9.465 C4.184,13.11 5.927,14.283 8.05,14.283 L9.35,14.283 L9.35,4.394 M7.322,16.311 L3.455,24.995 L0.634,24.995 L4.881,15.708 C2.884,14.695 1.553,12.856 1.553,9.465 C1.553,4.711 4.564,2.335 8.146,2.335 L11.79,2.335 L11.79,24.995 L9.35,24.995 L9.35,16.311 L7.322,16.311"/>
</g>

<g fill="#000000" fill-opacity="1" stroke="#000000" stroke-opacity="1" stroke-width="1" stroke-linecap="butt" stroke-linejoin="miter" stroke-miterlimit="2" transform="matrix(13.4375,0,0,13.4375,8.09375,8)"
>
</g>

<g fill="#000000" fill-opacity="1" stroke="none" transform="matrix(13.4375,0,0,13.4375,8.09375,8)"
>
<path vector-effect="none" fill-rule="nonzero" d="M59.059,17.009 C59.059,12.001 60.993,8.799 64.733,8.799 C66.159,8.799 66.983,9.181 67.68,9.624 L67.331,11.97 C66.665,11.4 65.715,10.86 64.701,10.86 C62.926,10.86 61.659,12.857 61.659,16.882 C61.659,20.875 62.609,23.157 64.606,23.157 C65.81,23.157 66.729,22.682 67.299,22.175 L67.87,24.013 C67.014,24.741 66,25.217 64.542,25.217 C61.12,25.217 59.059,22.46 59.059,17.009 L59.059,17.009 M51.833,17.039 L51.833,24.995 L49.362,24.995 L49.362,9.023 L51.833,9.023 L51.833,16.406 L55.668,9.023 L58.172,9.023 L54.21,16.533 L58.743,24.995 L56.048,24.995 L51.833,17.04 L51.833,17.039 M40.203,15.551 L44.29,15.551 C44.29,12.825 43.847,10.828 42.421,10.828 C40.9,10.828 40.361,12.698 40.203,15.551 L40.203,15.551 M42.928,25.217 C39.632,25.217 37.604,22.587 37.604,17.674 C37.604,12.54 39.03,8.8 42.421,8.8 C45.083,8.8 46.827,10.797 46.827,16.216 L46.827,17.579 L40.17,17.579 C40.17,21.193 41.185,23.094 43.15,23.094 C44.544,23.094 45.654,22.46 46.288,22.016 L46.858,23.918 C45.844,24.71 44.512,25.217 42.928,25.217 M32.406,11.019 L29.649,11.019 L29.649,11.304 C29.649,14.663 29.491,19.576 28.16,22.967 L32.406,22.967 L32.406,11.019 M36.114,28.133 L33.896,28.133 L33.896,24.995 L27.05,24.995 L27.05,28.133 L24.831,28.133 L24.831,22.967 L25.814,22.967 C27.272,19.576 27.43,14.632 27.43,10.385 L27.43,9.023 L34.846,9.023 L34.846,22.967 L36.114,22.967 L36.114,28.133 M23.406,9.023 L23.406,24.995 L20.965,24.995 L20.965,17.833 L17.288,17.833 L17.288,24.995 L14.817,24.995 L14.817,9.023 L17.288,9.023 L17.288,15.805 L20.965,15.805 L20.965,9.023 L23.406,9.023"/>
</g>

<g fill="#000000" fill-opacity="1" stroke="#000000" stroke-opacity="1" stroke-width="1" stroke-linecap="butt" stroke-linejoin="miter" stroke-miterlimit="2" transform="matrix(13.4375,0,0,13.4375,8.09375,8)"
>
</g>

<g fill="#000000" fill-opacity="1" stroke="#000000" stroke-opacity="1" stroke-width="1" stroke-linecap="butt" stroke-linejoin="miter" stroke-miterlimit="2" transform="matrix(13.4375,0,0,13.4375,8.09375,8)"
>
</g>

<g fill="#000000" fill-opacity="1" stroke="#000000" stroke-opacity="1" stroke-width="1" stroke-linecap="butt" stroke-linejoin="miter" stroke-miterlimit="2" transform="matrix(13.4375,0,0,13.4375,8.09375,8)"
>
</g>

<g fill="#000000" fill-opacity="1" stroke="#000000" stroke-opacity="1" stroke-width="1" stroke-linecap="butt" stroke-linejoin="miter" stroke-miterlimit="2" transform="matrix(1,0,0,1,0,0)"
>
</g>

<g fill="#000000" fill-opacity="1" stroke="#000000" stroke-opacity="1" stroke-width="1" stroke-linecap="butt" stroke-linejoin="miter" stroke-miterlimit="2" transform="matrix(1,0,0,1,0,0)"
>
</g>

<g fill="#000000" fill-opacity="1" stroke="#000000" stroke-opacity="1" stroke-width="1" stroke-linecap="butt" stroke-linejoin="miter" stroke-miterlimit="2" transform="matrix(1,0,0,1,0,0)"
>
</g>

<g fill="#000000" fill-opacity="1" stroke="#000000" stroke-opacity="1" stroke-width="1" stroke-linecap="butt" stroke-linejoin="miter" stroke-miterlimit="2" transform="matrix(1,0,0,1,0,0)"
>
</g>

<g fill="#000000" fill-opacity="1" stroke="#000000" stroke-opacity="1" stroke-width="1" stroke-linecap="butt" stroke-linejoin="miter" stroke-miterlimit="2" transform="matrix(1,0,0,1,0,0)"
>
</g>

<g fill="#000000" fill-opacity="1" stroke="#000000" stroke-opacity="1" stroke-width="1" stroke-linecap="butt" stroke-linejoin="miter" stroke-miterlimit="2" transform="matrix(1,0,0,1,0,0)"
>
</g>
</g>
</svg>
