<?xml version="1.0" encoding="UTF-8" standalone="no"?>
<svg width="270.933mm" height="162.19mm"
 xmlns="http://www.w3.org/2000/svg" xmlns:xlink="http://www.w3.org/1999/xlink"  version="1.2" baseProfile="tiny">
<desc>Created by EvoPdf</desc>
<defs>
</defs>
<g fill="none" stroke="white" stroke-width="1" fill-rule="evenodd" stroke-linecap="square" stroke-linejoin="bevel" >

<g fill="#FFFFFF" fill-opacity="1" stroke="#000000" stroke-opacity="1" stroke-width="1" stroke-linecap="butt" stroke-linejoin="miter" stroke-miterlimit="2" transform="matrix(1,0,0,1,0,0)"
>
</g>

<g fill="#FFFFFF" fill-opacity="1" stroke="#000000" stroke-opacity="1" stroke-width="1" stroke-linecap="butt" stroke-linejoin="miter" stroke-miterlimit="2" transform="matrix(1,0,0,1,0,0)"
>
</g>

<g fill="#FFFFFF" fill-opacity="1" stroke="#000000" stroke-opacity="1" stroke-width="1" stroke-linecap="butt" stroke-linejoin="miter" stroke-miterlimit="2" transform="matrix(1,0,0,1,0,0)"
>
</g>

<g fill="#FFFFFF" fill-opacity="1" stroke="#000000" stroke-opacity="1" stroke-width="1" stroke-linecap="butt" stroke-linejoin="miter" stroke-miterlimit="2" transform="matrix(1,0,0,1,0,0)"
>
</g>

<g fill="#FFFFFF" fill-opacity="1" stroke="#000000" stroke-opacity="1" stroke-width="1" stroke-linecap="butt" stroke-linejoin="miter" stroke-miterlimit="2" transform="matrix(18.6563,0,0,18.6563,8.28125,8)"
>
</g>

<g fill="#FFFFFF" fill-opacity="1" stroke="none" transform="matrix(18.6563,0,0,18.6563,8.28125,8)"
>
<path vector-effect="none" fill-rule="nonzero" d="M32.68,24.98 L32.68,9 L31,9 L31,15.861 C31,15.861 29.843,17.098 28.1,17.098 C26.61,17.098 25.69,16.178 25.69,13.896 L25.69,9 L24.2,9 L24.2,13.864 C24.2,16.876 25.627,18.366 27.846,18.366 C29.748,18.366 31,17.351 31,17.351 L31,24.98 L32.68,24.98 L32.68,24.98 M43.656,10.4 L43.656,9 L34.68,9 L34.68,10.4 L38.39,10.4 L38.39,24.98 L40.08,24.98 L40.08,10.4 L43.656,10.4 M8.337,24.666 L9.922,24.666 L9.922,2 L0,2 L0,24.666 L1.585,24.666 L1.585,3.3 L8.337,3.3 L8.337,24.666 L8.337,24.666 M51.803,24.959 L53.166,24.959 C52.976,24.357 52.817,23.121 52.817,22.011 L52.817,13.294 C52.817,10.124 51.327,8.666 48.697,8.666 C46.889,8.666 45.558,9.458 44.924,10.282 L45.336,11.709 C46.096,10.599 47.333,9.965 48.696,9.965 C50.44,9.965 51.359,11.011 51.359,13.452 L51.359,15.449 L49.616,15.449 C46.16,15.449 44.29,17.225 44.29,20.649 C44.29,23.565 45.78,25.276 47.936,25.276 C49.521,25.276 50.662,24.326 51.423,22.804 C51.518,23.944 51.676,24.547 51.803,24.959 L51.803,24.959 M17.562,24.983 C20.32,24.983 22.444,21.876 22.444,16.582 C22.444,11.098 20.32,8.372 17.562,8.372 C14.804,8.372 12.68,11.447 12.68,16.772 C12.68,22.225 14.804,24.982 17.562,24.982 L17.562,24.983 M17.562,23.778 C15.692,23.778 14.17,21.654 14.17,16.678 C14.17,11.827 15.692,9.608 17.562,9.608 C19.432,9.608 20.954,11.668 20.954,16.678 C20.954,21.496 19.432,23.778 17.562,23.778 M48.254,24.072 C46.733,24.072 45.75,22.772 45.75,20.522 C45.75,17.732 47.018,16.527 49.65,16.527 L51.36,16.527 L51.36,20.933 C50.79,22.645 49.744,24.072 48.254,24.072 "/>
</g>

<g fill="#FFFFFF" fill-opacity="1" stroke="#000000" stroke-opacity="1" stroke-width="1" stroke-linecap="butt" stroke-linejoin="miter" stroke-miterlimit="2" transform="matrix(18.6563,0,0,18.6563,8.28125,8)"
>
</g>

<g fill="#FFFFFF" fill-opacity="1" stroke="#000000" stroke-opacity="1" stroke-width="1" stroke-linecap="butt" stroke-linejoin="miter" stroke-miterlimit="2" transform="matrix(18.6563,0,0,18.6563,8.28125,8)"
>
</g>

<g fill="#FFFFFF" fill-opacity="1" stroke="#000000" stroke-opacity="1" stroke-width="1" stroke-linecap="butt" stroke-linejoin="miter" stroke-miterlimit="2" transform="matrix(1,0,0,1,0,0)"
>
</g>

<g fill="#FFFFFF" fill-opacity="1" stroke="#000000" stroke-opacity="1" stroke-width="1" stroke-linecap="butt" stroke-linejoin="miter" stroke-miterlimit="2" transform="matrix(1,0,0,1,0,0)"
>
</g>

<g fill="#FFFFFF" fill-opacity="1" stroke="#000000" stroke-opacity="1" stroke-width="1" stroke-linecap="butt" stroke-linejoin="miter" stroke-miterlimit="2" transform="matrix(1,0,0,1,0,0)"
>
</g>

<g fill="#FFFFFF" fill-opacity="1" stroke="#000000" stroke-opacity="1" stroke-width="1" stroke-linecap="butt" stroke-linejoin="miter" stroke-miterlimit="2" transform="matrix(1,0,0,1,0,0)"
>
</g>

<g fill="#FFFFFF" fill-opacity="1" stroke="#000000" stroke-opacity="1" stroke-width="1" stroke-linecap="butt" stroke-linejoin="miter" stroke-miterlimit="2" transform="matrix(1,0,0,1,0,0)"
>
</g>

<g fill="#FFFFFF" fill-opacity="1" stroke="#000000" stroke-opacity="1" stroke-width="1" stroke-linecap="butt" stroke-linejoin="miter" stroke-miterlimit="2" transform="matrix(1,0,0,1,0,0)"
>
</g>
</g>
</svg>
