<svg xmlns="http://www.w3.org/2000/svg" xmlns:xlink="http://www.w3.org/1999/xlink" width="30" height="30" viewBox="0 0 30 30"><defs><path id="2cdza" d="M237 115c0-8.284 6.716-15 15-15 8.284 0 15 6.716 15 15 0 8.284-6.716 15-15 15-8.284 0-15-6.716-15-15z"/><path id="2cdzb" d="M255.838 105h-2.924c-2.877 0-5.307 2.084-5.307 6.186 0 2.453 1.179 4.292 3.254 5.188l-4.311 7.262h2.273l4.018-6.932h1.274v6.932h1.98v-18.439c0-.141-.069-.197-.257-.197zm-1.674 10.148h-1.133c-1.7 0-3.305-1.18-3.305-4.198 0-3.112 1.558-4.385 3.116-4.385h1.322z"/></defs><g><g transform="translate(-237 -100)"><g><use fill="#f33" xlink:href="#2cdza"/></g><g><use fill="#fff" xlink:href="#2cdzb"/></g></g></g></svg>