<svg xmlns="http://www.w3.org/2000/svg" width="16" height="16" viewBox="0 0 12 12">
    <path d="M10.835.125c-.624.068-1.14.127-1.146.133a18128.507 18128.507 0 0 0-5.77 7.876c-.268.365-.49.66-.496.656-.004-.003-.214-.53-.467-1.17-.253-.64-.461-1.165-.464-1.167a165.058 165.058 0 0 1-1.262.552L0 7.544c-.001 0 .097.157.218.348.438.688.692 1.13 1.186 2.073.518.985.59 1.118.734 1.35.176.285.317.457.463.567.118.089.197.118.32.118a.374.374 0 0 0 .184-.035c.206-.08.426-.278.697-.626.186-.24.269-.363.836-1.252.89-1.398 1.4-2.173 2.111-3.218 1.771-2.601 3.575-4.957 5.2-6.798.05-.056.06-.072.043-.071l-1.157.125z"/>
</svg>