<svg xmlns="http://www.w3.org/2000/svg" viewBox="0 0 75 32" >
    <g xmlns="http://www.w3.org/2000/svg" fill="currentColor" style="fill: white">
        <path d="M9.35 4.394h-1.3c-1.965 0-3.866 1.3-3.866 5.071 0 3.645 1.743 4.818 3.866 4.818h1.3V4.394zM7.322 16.311l-3.867 8.684H.634l4.247-9.287c-1.997-1.013-3.328-2.852-3.328-6.243 0-4.754 3.011-7.13 6.593-7.13h3.644v22.66H9.35v-8.684H7.322zM59.059 17.009c0-5.008 1.934-8.21 5.674-8.21 1.426 0 2.25.382 2.947.825l-.349 2.346c-.666-.57-1.616-1.11-2.63-1.11-1.775 0-3.042 1.997-3.042 6.022 0 3.993.95 6.275 2.947 6.275 1.204 0 2.123-.475 2.693-.982l.571 1.838c-.856.728-1.87 1.204-3.328 1.204-3.422 0-5.483-2.757-5.483-8.208zm-7.226.03v7.956h-2.471V9.023h2.471v7.383l3.835-7.383h2.504l-3.962 7.51 4.533 8.462h-2.695l-4.215-7.955zm-11.63-1.488h4.087c0-2.726-.443-4.723-1.869-4.723-1.521 0-2.06 1.87-2.218 4.723zm2.725 9.666c-3.296 0-5.324-2.63-5.324-7.543 0-5.134 1.426-8.874 4.817-8.874 2.662 0 4.406 1.997 4.406 7.416v1.363H40.17c0 3.614 1.015 5.515 2.98 5.515 1.394 0 2.504-.634 3.138-1.078l.57 1.902c-1.014.792-2.346 1.299-3.93 1.299zM32.406 11.019h-2.757v.285c0 3.359-.158 8.272-1.489 11.663h4.246V11.019zm3.708 17.114h-2.218v-3.138H27.05v3.138h-2.219v-5.166h.983c1.458-3.391 1.616-8.335 1.616-12.582V9.023h7.416v13.944h1.268v5.166zM23.406 9.023v15.972h-2.441v-7.162h-3.677v7.162h-2.471V9.023h2.471v6.782h3.677V9.023h2.441z"/>
    </g>
</svg>
