<svg xmlns="http://www.w3.org/2000/svg" viewBox="0 0 54 32">
    <path fill="currentColor"
          d="M32.68 24.98V9H31v6.861s-1.157 1.237-2.9 1.237c-1.49 0-2.41-.92-2.41-3.202V9H24.2v4.864c0 3.012 1.427 4.502 3.646 4.502 1.902 0 3.154-1.015 3.154-1.015v7.629h1.68zM43.656 10.4V9H34.68v1.4h3.71v14.58h1.69V10.4h3.576zM8.337 24.666h1.585V2H0v22.666h1.585V3.3h6.752v21.366zm43.466.293h1.363c-.19-.602-.349-1.838-.349-2.948v-8.717c0-3.17-1.49-4.628-4.12-4.628-1.808 0-3.139.792-3.773 1.616l.412 1.427c.76-1.11 1.997-1.744 3.36-1.744 1.744 0 2.663 1.046 2.663 3.487v1.997h-1.743c-3.456 0-5.326 1.776-5.326 5.2 0 2.916 1.49 4.627 3.646 4.627 1.585 0 2.726-.95 3.487-2.472.095 1.14.253 1.743.38 2.155zm-34.241.024c2.758 0 4.882-3.107 4.882-8.401 0-5.484-2.124-8.21-4.882-8.21-2.758 0-4.882 3.075-4.882 8.4 0 5.453 2.124 8.21 4.882 8.21zm0-1.205c-1.87 0-3.392-2.124-3.392-7.1 0-4.851 1.522-7.07 3.392-7.07 1.87 0 3.392 2.06 3.392 7.07 0 4.818-1.522 7.1-3.392 7.1zm30.692.294c-1.521 0-2.504-1.3-2.504-3.55 0-2.79 1.268-3.995 3.9-3.995h1.71v4.406c-.57 1.712-1.616 3.139-3.106 3.139z"/>
</svg>